<svg width="28" height="28" viewBox="0 0 28 28" xmlns="http://www.w3.org/2000/svg">
<path fill-rule="evenodd" clip-rule="evenodd" d="M14 0C21.732 0 28 6.26801 28 14C28 21.732 21.732 28 14 28C6.26801 28 0 21.732 0 14C0 6.26801 6.26801 0 14 0ZM25.3542 15.5227C24.0049 16.2246 22.2278 16.8114 20.2099 17.216C19.9231 20.1459 19.2446 22.7322 18.2578 24.6371C22.024 23.1282 24.8024 19.6771 25.3542 15.5227ZM17.8007 15.0239C17.8122 14.6868 17.8182 14.3453 17.8182 14C17.8182 7.61599 15.79 2.54545 14 2.54545C12.21 2.54545 10.1818 7.61599 10.1818 14C10.1818 14.3652 10.1885 14.7262 10.2013 15.0821C11.3953 15.2069 12.671 15.2727 14 15.2727C15.3085 15.2727 16.5922 15.1804 17.8007 15.0239ZM20.3588 14.578C20.362 14.3862 20.3636 14.1935 20.3636 14C20.3636 9.76482 19.5929 5.9402 18.2578 3.36294C22.0457 4.88054 24.8344 8.36281 25.3636 12.5493C24.7646 13.2215 22.8756 14.02 20.3588 14.578ZM10.4095 17.662C11.5513 17.7649 12.7539 17.8182 14 17.8182C15.2261 17.8182 16.434 17.7487 17.5958 17.6198C17.0217 22.1985 15.4344 25.4545 14 25.4545C12.5701 25.4545 10.988 22.2185 10.4095 17.662ZM7.64343 14.7003C6.91296 14.5545 6.23217 14.3829 5.61055 14.1877C4.03176 13.6919 3.00004 13.0843 2.62902 12.6094C3.13892 8.39614 5.93617 4.8878 9.74216 3.36293C8.40708 5.9402 7.63636 9.76482 7.63636 14C7.63636 14.2347 7.63873 14.4682 7.64343 14.7003ZM7.80072 17.3229C8.09348 20.2087 8.7674 22.7554 9.74216 24.6371C6.04133 23.1543 3.29427 19.7962 2.67649 15.7382C4.00455 16.4299 5.75696 16.9676 7.80072 17.3229Z"/>
</svg>
