<svg id="Layer_1" data-name="Layer 1" xmlns="http://www.w3.org/2000/svg" viewBox="0 0 846.71 156.08"><defs><style>.cls-1{fill:#ef4137;}.cls-1,.cls-10,.cls-2,.cls-3,.cls-4,.cls-5,.cls-6,.cls-9{opacity:0.9;}.cls-2{fill:#f69320;}.cls-3{fill:#3ab54a;}.cls-4{fill:#ec5d10;}.cls-5{fill:#29b574;}.cls-6{fill:#f15b2a;}.cls-7{fill:#faaf43;}.cls-7,.cls-8{opacity:0.8;}.cls-10,.cls-8{fill:#2ab674;}.cls-9{fill:#f6b251;}</style></defs><title>logo</title><rect class="cls-1" x="236.08" y="90.3" width="35.65" height="62.39"/><path class="cls-2" d="M374.2,346.52a65.74,65.74,0,1,0,65.74,65.74A65.73,65.73,0,0,0,374.2,346.52Zm0,95.82a30.08,30.08,0,1,1,30.08-30.08A30.08,30.08,0,0,1,374.2,442.34Z" transform="translate(-168.2 -321.96)"/><rect class="cls-3" x="595.87" y="90.3" width="35.65" height="62.39"/><rect class="cls-2" x="979.25" y="321.96" width="35.65" height="90.25" transform="translate(1825.96 412.2) rotate(-180)"/><path class="cls-4" d="M979.26,353.86V412.3a30.08,30.08,0,1,1-13.37-25V348.71a65.87,65.87,0,1,0,13.37,5.15Z" transform="translate(-168.2 -321.96)"/><rect class="cls-2" x="287.33" y="90.3" width="35.65" height="62.39"/><path class="cls-5" d="M521.27,382.18V346.52a65.73,65.73,0,0,0-65.73,65.74h35.65A30.08,30.08,0,0,1,521.27,382.18Z" transform="translate(-168.2 -321.96)"/><rect class="cls-6" x="646.12" y="90.3" width="35.65" height="62.39"/><path class="cls-7" d="M880.06,382.18V346.52a65.74,65.74,0,0,0-65.74,65.74H850A30.08,30.08,0,0,1,880.06,382.18Z" transform="translate(-168.2 -321.96)"/><rect class="cls-8" x="358.98" y="90.3" width="35.65" height="62.39"/><rect class="cls-4" x="454.8" y="90.3" width="35.65" height="62.39"/><path class="cls-9" d="M592.92,382.18A30.08,30.08,0,0,1,623,412.26h35.66a65.74,65.74,0,0,0-131.48,0h35.66A30.08,30.08,0,0,1,592.92,382.18Z" transform="translate(-168.2 -321.96)"/><path class="cls-2" d="M734,346.52a65.74,65.74,0,1,0,65.74,65.74A65.74,65.74,0,0,0,734,346.52Zm0,95.82a30.08,30.08,0,1,1,30.08-30.08A30.08,30.08,0,0,1,734,442.34Z" transform="translate(-168.2 -321.96)"/><path class="cls-4" d="M203.89,353.81v58.45a30.06,30.06,0,1,0,13.37-25V348.67a65.81,65.81,0,1,1-13.37,5.14Z" transform="translate(-168.2 -321.96)"/><rect class="cls-10" width="35.65" height="90.25"/></svg>